{"title":"Batman V Superman Dawn of Jusitce - 2016 - Extended Cut Ultimate","uid":15099627,"size":761849704,"categoryP":"video","categoryS":"movies","magnet":"?xt=urn:btih:d19e7b2881a3300fb7ac91ac00648bd849b12a3e&amp;dn=Batman+V+Superman+Dawn+of+Jusitce+-+2016+-+Extended+Cut+Ultimate&amp;tr=udp%3A%2F%2Ftracker.leechers-paradise.org%3A6969&amp;tr=udp%3A%2F%2Fzer0day.ch%3A1337&amp;tr=udp%3A%2F%2Fopen.demonii.com%3A1337&amp;tr=udp%3A%2F%2Ftracker.coppersurfer.tk%3A6969&amp;tr=udp%3A%2F%2Fexodus.desync.com%3A6969","seeders":3,"leechers":2,"uploader":"makintos13","files":1,"time":1466949145,"description":"Batman V Superman Dawn of Jusitce - 2016 - Extended Cut Ultimate Edition - Dual Audio - (Eng-Tamil) - 700 MB- HDRip  - x264 - Makintos13\r\n\r\nScreens:\r\n \nhttps://imgmak.com/Tn8\r\n \nhttps://imgmak.com/TnL\r\n \nhttps://imgmak.com/TnX\r\n \nhttps://imgmak.com/TrC\r\n \nhttps://imgmak.com/TrK\r\n \nhttps://imgmak.com/TrT\r\n\r\nFormat                      : Matroska\r\nFormat version              : Version 4 / Version 2\r\nFile size                   : 727 MiB\r\nDuration                    : 2h 54mn\r\nOverall bit rate            : 581 Kbps\r\n\r\nVideo\r\nID                          : 3\r\nFormat                      : AVC\r\nFormat/Info                 : Advanced Video Codec\r\nFormat profile              :   \r\nFormat settings, CABAC      : Yes\r\nFormat settings, ReFrames   : 4 frames\r\nCodec ID                    : V_MPEG4/ISO/AVC\r\nDuration                    : 2h 54mn\r\nBit rate                    : 508 Kbps\r\nWidth                       : 640 pixels\r\nHeight                      : 272 pixels\r\nDisplay aspect ratio        : 2.35:1\r\nFrame rate mode             : Constant\r\nFrame rate                  : 23.976 (24000/1001) fps\r\nColor space                 : YUV\r\nChroma subsampling          : 4:2:0\r\nBit depth                   : 8 bits\r\nScan type                   : Progressive\r\nBits/(Pixel*Frame)          : 0.122\r\nStream size                 : 635 MiB (87%)\r\n\r\nDefault                     : Yes\r\nForced                      : No\r\n\r\nAudio #1\r\nID                          : 1\r\nFormat                      : AAC\r\nFormat/Info                 : Advanced Audio Codec\r\nFormat profile              : LC\r\nCodec ID                    : A_AAC\r\nDuration                    : 2h 54mn\r\nBit rate                    : 6 789 bps\r\nChannel(s)                  : 2 channels\r\nChannel positions           : Front: L R\r\nSampling rate               : 48.0 KHz\r\nFrame rate                  : 46.875 fps (1024 spf)\r\nCompression mode            : Lossy\r\nStream size                 : 8.48 MiB (1%)\r\nLanguage                    : English\r\nDefault                     : Yes\r\nForced                      : No\r\n\r\nAudio #2\r\nID                          : 2\r\nFormat                      : AAC\r\nFormat/Info                 : Advanced Audio Codec\r\nFormat profile              : LC\r\nCodec ID                    : A_AAC\r\nDuration                    : 2h 54mn\r\nBit rate                    : 64.2 Kbps\r\nChannel(s)                  : 2 channels\r\nChannel positions           : Front: L R\r\nSampling rate               : 48.0 KHz\r\nFrame rate                  : 46.875 fps (1024 spf)\r\nCompression mode            : Lossy\r\nStream size                 : 80.2 MiB (11%)\r\nLanguage                    : Tamil\r\nDefault                     : No\r\nForced                      : No\r\nSource                      : TR (thanks)","torrent":{"xt":"urn:btih:d19e7b2881a3300fb7ac91ac00648bd849b12a3e","amp;dn":"Batman+V+Superman+Dawn+of+Jusitce+-+2016+-+Extended+Cut+Ultimate","amp;tr":["udp%3A%2F%2Ftracker.leechers-paradise.org%3A6969","udp%3A%2F%2Fzer0day.ch%3A1337","udp%3A%2F%2Fopen.demonii.com%3A1337","udp%3A%2F%2Ftracker.coppersurfer.tk%3A6969","udp%3A%2F%2Fexodus.desync.com%3A6969"],"infoHash":"d19e7b2881a3300fb7ac91ac00648bd849b12a3e","infoHashBuffer":{"type":"Buffer","data":[209,158,123,40,129,163,48,15,183,172,145,172,0,100,139,216,73,177,42,62]},"announce":[],"urlList":[]}}